<svg height="368pt" viewBox="0 0 368 368" width="368pt" xmlns="http://www.w3.org/2000/svg"><path d="m328 72h-112l-32 96-32-96h-112c-17.679688 0-32 14.320312-32 32v64c0-17.679688 14.320312-32 32-32h80l64 224 64-224h80c17.679688 0 32 14.320312 32 32v-64c0-17.679688-14.320312-32-32-32zm0 0" fill="#cce4ff"/><g fill="#007aff"><path d="m328 0h-288c-22.054688 0-40 17.945312-40 40 0 4.425781 3.585938 8 8 8s8-3.574219 8-8c0-13.230469 10.769531-24 24-24h288c13.230469 0 24 10.769531 24 24 0 4.425781 3.574219 8 8 8s8-3.574219 8-8c0-22.054688-17.945312-40-40-40zm0 0"/><path d="m328 64h-112c-3.449219 0-6.503906 2.199219-7.585938 5.472656l-24.414062 73.230469-24.40625-73.230469c-1.089844-3.273437-4.144531-5.472656-7.59375-5.472656h-112c-22.054688 0-40 17.945312-40 40v64c0 4.425781 3.585938 8 8 8s8-3.574219 8-8c0-13.230469 10.769531-24 24-24h73.96875l62.34375 218.191406c.976562 3.441406 4.121094 5.808594 7.6875 5.808594s6.710938-2.367188 7.6875-5.808594l62.34375-218.191406h73.96875c13.230469 0 24 10.769531 24 24 0 4.425781 3.574219 8 8 8s8-3.574219 8-8v-64c0-22.054688-17.945312-40-40-40zm24 72.015625c-6.6875-5.03125-15-8.015625-24-8.015625h-80c-3.566406 0-6.710938 2.367188-7.695312 5.808594l-56.304688 197.070312-56.3125-197.078125c-.976562-3.433593-4.121094-5.800781-7.6875-5.800781h-80c-9 0-17.3125 2.984375-24 8.015625v-32.015625c0-13.230469 10.769531-24 24-24h106.230469l30.175781 90.527344c1.097656 3.273437 4.144531 5.472656 7.59375 5.472656s6.503906-2.199219 7.59375-5.472656l30.175781-90.527344h106.230469c13.230469 0 24 10.769531 24 24zm0 0"/></g></svg>